<?xml version="1.0" encoding="UTF-8"?>
<svg id="Capa_1" data-name="Capa 1" xmlns="http://www.w3.org/2000/svg" viewBox="0 0 1080 1080">
  <defs>
    <style>
      .cls-1 {
        fill: navy;
        stroke-width: 0px;
      }
    </style>
  </defs>
  <path class="cls-1" d="m618.14,124.07c3.32.85,6.66,1.62,9.95,2.57,15.49,4.43,28.58,12.27,37.11,26.45,35.59,59.14,71.54,118.08,106.66,177.5,47.13,79.72,93.02,160.18,140.73,239.55,16.01,26.63,9.83,72.61-26.59,93.25-8.98,5.09-18.17,7.9-28.85,7.87-38.33-.1-76.66.78-115,1.05-4.44.03-6.23,1.53-7.93,5.52-5.67,13.32-11.93,26.38-18.99,41.78.98.57,3.44,1.41,5.08,3.06,28.08,28.28,55.94,56.78,84.11,84.97,23.91,23.94,32.77,52.25,21.49,84.26-11.87,33.68-35.75,55.56-71.64,62.79-1.22.24-2.37.8-3.55,1.21h-18.2c-2.47-.61-4.91-1.42-7.42-1.8-16.86-2.57-30.04-11.83-41.84-23.32-30.25-29.47-60.42-59.01-90.38-88.78-4.03-4-7.1-4.53-12.26-2.32-25.11,10.73-50.77,19.65-78.05,23.34-177.05,24-311.42-95.24-338.16-238.05-30.12-160.88,70.08-312.58,229.73-348.46,24.03-5.4,48.62-6.91,72.99-5.26,16.67,1.13,25.15-4.7,32.63-19.32,16.54-32.33,35.23-63.55,53.07-95.22,10.31-18.3,26.54-27.85,46.72-31.56,1.03-.19,1.99-.73,2.98-1.11,5.2,0,10.4,0,15.6,0Zm-96.78,180.83c-12.11-2.11-22.38-3.58-32.5-5.76-7.86-1.69-12.24,1.13-16.15,8.03-39.55,69.85-79.49,139.48-119.14,209.27-25.01,44.02-49.52,88.32-74.66,132.26-10.66,18.64,2.83,56.45,29.76,56.6,6.7.04,13.39,1.04,20.09,1.06,66.92.25,133.84.5,200.77.53,51.76.02,103.53-.23,155.29-.57,2.46-.02,6.13-1.45,7.18-3.36,20.52-37.3,33.29-77.07,35.02-119.76,3.54-87.56-27.49-160.84-92.54-219.56-7.27-6.56-15.35-12.22-24.38-19.34,0,4.48.03,6.83,0,9.17-.75,50.67-1.37,101.34-2.46,152-.13,5.84-1.46,12.55-4.62,17.28-12.43,18.62-29.64,27.81-54.97,22.24-19.41-4.27-33.64-22.75-33.88-44.27-.56-49.81-.86-99.63-.8-149.44.02-15.31-3.64-31.34,7.98-46.38Zm148.97,430.49c-22.66,0-43.86.07-65.06-.01-99.4-.41-198.81-.85-298.21-1.31-2.15,0-4.42.03-6.42-.61-49.38-15.87-64.8-65.22-43.18-102.96,61.94-108.13,123.17-216.66,184.67-325.04,1.22-2.15,2.32-4.37,3.69-6.97-89.01.93-205.42,59.8-246.94,188.46-39.82,123.4,16.38,260.74,132,320.66,111.36,57.72,248.81,36.65,339.46-72.22Zm-151.9-459.99c10.9,3.2,20.7,5.79,30.31,8.93,122.7,39.99,221.87,160.71,203.81,323.63-1.27,11.49-3.72,22.85-5.65,34.47,1.28.25,2.11.56,2.94.56,36.58.02,73.19.83,109.74-.29,22.69-.7,40.16-28.86,32.6-50.22-2-5.65-5.26-10.9-8.31-16.12-41.37-70.8-82.59-141.7-124.3-212.3-38.08-64.46-77.06-128.38-114.93-192.97-13.51-23.05-53.49-27.22-69.58,1.54-10.14,18.12-20.38,36.19-30.42,54.38-8.65,15.69-17.07,31.5-26.21,48.4Zm95.08,546.87c.71,1.06,1.07,1.85,1.64,2.42,30.37,29.96,60.77,59.88,91.12,89.86,13.8,13.63,30.94,15.51,48.38,11.73,21.43-4.65,35.46-19.57,43.83-39.12,8.47-19.78,5.94-38.98-9.18-54.78-28.6-29.88-57.85-59.14-86.84-88.65-.7-.71-1.57-1.24-2.65-2.08-24.29,31.99-52.77,58.9-86.31,80.62Zm-72.11-408.38c-.06,0-.12,0-.18,0,0,29.22-.27,58.43.14,87.64.16,11.01,8.12,17.9,18.86,18.13,10.39.23,18.89-6.71,20.4-16.87.6-4.05,1.06-8.17,1.09-12.27.29-46.33.52-92.65.65-138.98.02-7.96,2.38-17.96-1.48-23.35-4.27-5.98-14.33-7.99-22.04-11.33-9.73-4.22-14.44-1.63-16.75,8.78-.42,1.89-.66,3.86-.67,5.79-.04,27.48-.03,54.96-.03,82.45Z"/>
  <path class="cls-1" d="m616.07,623.92c0,30.15-24.93,55.23-54.81,55.18-30.78-.06-54.51-24.44-55.14-55.36-.67-32.73,29.57-55.48,53.37-55.27,31.62.27,56.59,24.54,56.58,55.45Zm-27.82-1.03c-.11-15.1-11.91-26.87-26.78-26.72-15.66.16-27.94,13.03-27.72,29.07.18,13.49,13.24,26.15,27.09,26.27,15.04.13,27.52-12.91,27.4-28.63Z"/>
</svg>