<?xml version="1.0" encoding="UTF-8"?>
<svg id="Capa_1" data-name="Capa 1" xmlns="http://www.w3.org/2000/svg" viewBox="0 0 1080 1080">
  <defs>
    <style>
      .cls-1 {
        fill: #360b9e;
        stroke-width: 0px;
      }
    </style>
  </defs>
  <path class="cls-1" d="m503.72,525.76c15.18,0,29.67-.4,44.12.18,6.52.26,13.7,1.09,19.27,4.1,9.3,5.02,12.13,17.48,8.5,29.51-1.12,3.72-2.62,7.34-3.56,11.1-1.91,7.63.77,14,7.45,18.47,6.02,4.03,12.87,3.91,18.8-.31,6.92-4.94,9.61-11.67,7.39-19.16-.92-3.1-2.29-6.06-3.48-9.08-6.19-15.7,3.5-35.87,23.79-35.1,19.68.75,39.41.03,59.11-.03,9.46-.02,13.95,4.11,13.73,13.58-.61,26.55-4.25,52.58-13.98,77.52-10.8,27.69-27.38,51.96-44.5,75.95-10.31,14.44-20.35,29.07-30.61,43.54-2.8,3.95-2.35,6.26,1.76,9.43,16.71,12.92,20.59,35.1,9.32,53.57-3.16,5.17-3.52,8.43-.16,14.01,18.3,30.4-4.07,57.09-27.17,62.02-7.04,1.5-9.67,4.44-11.7,11.05-10.9,35.43-46.46,61.65-84.67,63.18-45.4,1.82-79.96-20.47-96.67-62.84-2.62-6.64-5.99-10.29-13.35-12.02-28.99-6.82-41.14-38.3-24.8-63.29,2.33-3.57,2.68-5.96.13-9.75-12.29-18.27-9.52-40.28,7-55.11,4.47-4.01,5-7.13,1.55-11.97-14.83-20.79-29.49-41.7-44.1-62.64-21.07-30.19-36.13-62.73-41.29-99.7-16.92-121.18,61.72-199.77,144.75-224.3,19.17-5.67,38.61-9.63,58.76-9.12,9.33.24,12.61,2.34,12.83,11.61.5,20.34.88,40.73-.09,61.04-.69,14.55-17.05,24.29-31.18,20.06-5.17-1.55-10.26-3.53-15.54-4.46-7.7-1.36-13.49,1.62-16.89,8-3.46,6.48-3.36,12.98,1.1,18.94,4.49,6,10.34,9.22,18.09,6.92,4.55-1.35,9.01-3.05,13.57-4.36,14.48-4.17,30.61,5.2,30.87,21.38.24,15.34,1.15,30.66,1.85,48.1Zm-26.21-162.62c-2.91.25-5.08.13-7.07.66-16.88,4.51-34.46,7.38-50.47,14.02-78.35,32.49-127.58,107.04-107.48,204.74,5.83,28.34,19.46,53.01,35.61,76.54,17.02,24.79,33.93,49.65,51.07,74.36,1.09,1.57,3.76,2.89,5.7,2.89,57.61.11,115.22.06,172.83-.15,1.89,0,4.45-1.51,5.55-3.11,16.22-23.5,32.07-47.26,48.37-70.7,17.18-24.72,31.74-50.61,37.63-80.52,2.02-10.26,3.27-20.67,4.95-31.51h-49.54c11.24,23.63,7.84,43.72-12.85,59.34-12.13,9.16-34.59,9.09-46.62-.25-20.22-15.7-23.32-35.7-12.06-59.38-3.42,0-5.92.01-8.42,0-17.32-.09-34.65-.16-51.97-.28-7.19-.05-14.38-7.17-14.44-14.32-.1-12.13-.14-24.26-.18-36.38-.02-6.17,0-12.34,0-20.03-12.07,6.15-22.96,7.68-34.36,5.62-12.35-2.23-20.08-10.66-26.76-20.13-8.46-12-7.71-33.09,2.99-46.46,15.63-19.54,36-19.53,57.53-10.81v-44.15Zm11.83,487.91c0,.25,0,.51,0,.76,13.43,0,26.86.14,40.28-.03,19.27-.24,38.54-.56,57.8-1.16,8.01-.25,15.79-8.15,15.96-15.33.17-7.36-7.06-15.13-15.15-16.01-4.94-.54-9.93-.97-14.9-1-30.32-.16-60.64-.37-90.96-.21-29.88.16-59.76.63-89.64,1.22-7.8.15-13.4,7.23-13.17,15.58.23,8.36,7.05,16.16,14.27,16.16,31.83.03,63.67.01,95.5.01Zm1.43-57.62v-1.15c32.47,0,64.94.09,97.4-.06,8.78-.04,14.47-6.54,14.44-15.55-.03-7.39-7.93-15.72-15.16-15.71-57.8.08-115.61.14-173.41.38-7.77.03-15.59.6-23.28,1.68-7.6,1.07-12.43,8.41-11.49,16.1.95,7.75,7.66,14.31,14.72,14.31,32.26.01,64.52,0,96.78,0Zm-67.46,83.69c7.48,25.48,35.85,49.61,73.03,47.97,25.86-1.14,56.19-24.07,62.2-47.97h-135.22Z"/>
  <path class="cls-1" d="m653.98,442c-4.59-.31-7.97-.72-11.36-.75-16.67-.15-33.35-.21-50.02-.29-7.93-.03-11.42-2.58-12.59-10.56-.85-5.75-.86-11.64-.91-17.47-.12-13.57-.04-27.15-.04-41.45-24.44,10.8-45.45,9.04-61.17-13.98-8.54-12.51-7.76-32.97,1.43-45.28,14.19-19.02,27.44-21.75,59.75-11.96,0-14.4-.07-28.6.04-42.8.04-5.18.1-10.42.85-15.53,1.07-7.31,4.34-10.08,11.76-10.37,19.42-.76,38.45,2.19,57.1,7.22,5.24,1.41,7.12-.03,8.38-4.57,1.1-3.95,2.49-7.83,3.78-11.72,8.33-25.13,18.74-32.98,45.4-34.72,27.09-1.77,53.76-5.77,79.26-15.65,3.22-1.25,6.37-2.71,9.58-3.99,5.82-2.32,9.12-6.05,10.52-12.66,2.77-13.09,30.43-28.38,43.23-24.13,3.64,1.21,7.28,4.11,9.6,7.22,5.81,7.78,11.27,15.9,16.15,24.3,17.92,30.87,35.57,61.89,53.25,92.9,2.25,3.94,4.25,8.03,6.07,12.19,4.31,9.83,2.93,17.71-5.45,24.36-9.81,7.78-19.95,15.19-33.48,15.57-2.98.08-6.86,2.2-8.66,4.62-10.35,13.93-24.29,23.29-38.89,31.91-15.83,9.35-31.63,18.76-47.59,27.9-5.89,3.37-7.42,7.22-6.12,14.27,2.54,13.77,3.77,27.81,4.82,41.8.62,8.3-2.06,11.23-10.36,11.59-17.29.75-34.62.84-51.93,1.25-3.38.08-6.76.35-11.04.58,1.38,4.42,2.47,8.07,3.65,11.68,6.89,21.23-3.07,43.37-23.46,52.12-19.59,8.41-43.58.14-53.49-19.19-6.03-11.74-5.26-24.28-1.24-36.64.73-2.23,1.79-4.35,3.21-7.77Zm-49.19-186.63c-.43,3.52-.96,6.21-1.05,8.93-.41,12.33-1.14,24.68-.9,37,.3,15.31-16.78,28.37-34.02,21.87-3.44-1.3-6.9-3.2-10.43-3.4-4.52-.27-9.71-.25-13.57,1.7-7.54,3.81-10.08,13.21-7.14,21.51,2.43,6.87,10.52,11.23,19.26,9.72,4.42-.77,8.67-2.6,12.96-4.05,15.82-5.33,31.69,4.63,32.83,21.2.8,11.65.57,23.37.77,35.06.06,3.78,0,7.56,0,11.6,5.18,0,9.28-.07,13.38.01,12.76.28,25.65-.39,38.25,1.17,18.61,2.31,27.55,19.61,20.21,36.82-1.18,2.77-2.35,5.6-3.03,8.52-1.77,7.59,1.46,14.68,8.26,18.8,6,3.64,13.64,3.08,19.46-1.42,5.9-4.56,8.13-11.91,5.68-19.18-1.03-3.07-2.47-6-3.48-9.07-5.63-17.07,3.86-32.79,21.68-34.38,14.2-1.27,28.54-.93,42.81-1.4,7.14-.23,8.37-1.37,6.72-8.17-3.27-13.43-7.02-26.74-10.73-40.06-.65-2.32-2.04-4.43-3.15-6.77-1.37.78-2,1.01-2.46,1.42-21.88,19.16-54.13,12.78-66.65-13.24-6.3-13.1-5.15-26.05,1.3-38.7,3.21-6.3,6.81-12.4,10.65-19.34-29.1-20.87-61.7-31.08-97.61-36.16Zm110.35,13.85c1.61-2.49,3.14-4.85,4.66-7.2,1.53-2.36,2.94-4.81,4.62-7.06,3.26-4.37,10.96-5.5,15.78-2.46,5.29,3.34,6.88,8.75,3.99,14.39-2.86,5.58-5.94,11.05-8.89,16.58-7.54,14.11-15.29,28.12-22.52,42.4-3.96,7.81-.81,16.09,7.15,21.19,7.48,4.8,14.69,3.64,20.63-3.61,2.73-3.34,5.27-6.89,7.48-10.6,11.32-18.94,22.48-37.98,33.75-56.96,3.2-5.39,6.45-10.78,9.95-15.98,3.98-5.9,8.83-7.14,14.47-4.14,6.09,3.24,7.93,7.39,5.39,13.96-2.01,5.23-4.44,10.34-7.17,15.24-8.76,15.67-17.76,31.21-26.66,46.81-2.25,3.95,2.19,18.26,6.32,19.72,1.15.41,2.96-.17,4.13-.87,19.7-11.73,39.51-23.29,58.94-35.45,9.77-6.12,18.44-13.8,23.6-24.49.93-1.93,1.18-5.16.18-6.89-17.75-30.97-35.8-61.77-53.61-92.71-2.14-3.73-4.37-3.94-7.92-2.49-8.01,3.26-16.03,6.52-24.21,9.31-26.19,8.95-53.14,13.88-80.84,14.32-9.43.15-15.63,4.18-18.53,13.18-2.12,6.58-4.55,13.09-6.19,19.79-.41,1.68,1.08,4.92,2.64,5.83,10.63,6.2,21.52,11.97,32.84,18.16Zm114.51-106.51c1.02,1.8,1.85,3.29,2.71,4.77,20.66,35.7,41.32,71.41,61.99,107.1,4.83,8.34,5.44,8.45,13.47,2.71.85-.61,1.56-1.41,2.64-2.4-1.54-2.94-2.94-5.82-4.53-8.59-19.24-33.53-38.49-67.05-57.79-100.54-6.57-11.39-6.65-11.34-18.48-3.05Z"/>
  <path class="cls-1" d="m186.16,557.16c-10.58,0-21.16.27-31.73-.1-6.77-.24-10.57-4.39-10.83-10.49-.25-5.86,3.47-10.69,9.53-12.11,2.08-.49,4.27-.78,6.41-.75,18.14.25,36.28.47,54.41.96,7.71.21,12.55,4.87,12.34,11.16-.21,6.64-6.03,12.09-12.91,12.1-9.07,0-18.14,0-27.22,0,0-.26,0-.52,0-.78Z"/>
  <path class="cls-1" d="m799.24,557.37c-10.38,0-20.77.21-31.15-.08-6.17-.17-10.38-4.65-10.9-10.59-.47-5.4,3.8-10.72,9.74-11.99,1.9-.41,3.85-.82,5.78-.81,18.6.17,37.21.24,55.8.75,7.2.2,11.17,4.88,11.13,11.65-.04,6.67-3.7,10.34-11.21,10.5-9.73.22-19.47.05-29.2.05,0,.17,0,.34,0,.51Z"/>
  <path class="cls-1" d="m365.41,308.01c-2.49,2.6-4.8,6.4-8.18,8.2-4.66,2.48-9.96,1.83-13.28-3-4.14-6.04-8-12.31-11.6-18.69-6.58-11.64-12.99-23.38-19.25-35.2-3.19-6.03-1.49-10.89,4.57-14.67,5.16-3.22,10.36-2.39,14.44,2.37,1.12,1.31,2.2,2.69,3.04,4.19,9.1,16.4,18.17,32.82,27.18,49.27,1.02,1.87,1.64,3.96,3.08,7.53Z"/>
  <path class="cls-1" d="m263.43,686.54c-1.14,1.5-2.7,5.23-5.5,6.94-17.89,10.94-35.96,21.6-54.18,31.99-5.88,3.35-9.85-1.08-13-5.28-3.41-4.55-3.13-11.64,1.04-14.07,18.67-10.87,37.39-21.69,56.54-31.66,6.97-3.63,14.98,2.47,15.09,12.08Z"/>
  <path class="cls-1" d="m719.43,685.71c1.11-10.21,7.22-15.53,15.42-11.25,18.9,9.86,37.21,20.9,55.48,31.91,4.98,3,6.26,8.14,2.74,13.55-3.6,5.54-9.61,7.81-15.09,4.75-17.54-9.8-34.98-19.79-52.18-30.18-2.85-1.72-4.29-5.8-6.38-8.79Z"/>
  <path class="cls-1" d="m198.24,365.28c3.54,1.32,5.7,1.8,7.52,2.86,17.18,9.91,34.42,19.7,51.37,29.99,6.9,4.19,7.73,9.23,3.95,15.22-3.93,6.22-9.31,7.79-16.06,3.91-17.02-9.78-33.89-19.83-50.79-29.82-5.3-3.13-6.85-8.43-4.62-13.43,1.6-3.61,5.85-6.04,8.63-8.73Z"/>
  <path class="cls-1" d="m480.03,237.46c0-9.72-.03-19.45.01-29.17.02-4.77,4.89-10.41,9.99-10.73,5.27-.33,9.76,1.76,11.98,6.99.75,1.76,1.34,3.76,1.32,5.65-.14,20.07-.09,40.15-.83,60.21-.28,7.53-7.37,11.23-14.63,8.98-5.71-1.77-7.52-6.06-7.55-11.47-.05-10.15-.02-20.31-.02-30.46h-.29Z"/>
</svg>