<?xml version="1.0" standalone="no"?>
<!DOCTYPE svg PUBLIC "-//W3C//DTD SVG 20010904//EN"
 "http://www.w3.org/TR/2001/REC-SVG-20010904/DTD/svg10.dtd">
<svg version="1.0" xmlns="http://www.w3.org/2000/svg"
 width="512.000000pt" height="512.000000pt" viewBox="0 0 512.000000 512.000000"
 preserveAspectRatio="xMidYMid meet">
<metadata>
Created by potrace 1.16, written by Peter Selinger 2001-2019
</metadata>
<g transform="translate(0.000000,512.000000) scale(0.100000,-0.100000)"
fill="#000000" stroke="none">
<path d="M4299 5034 c-82 -50 -100 -70 -108 -124 -5 -30 -13 -38 -56 -59 -138
-65 -314 -106 -521 -121 -151 -11 -188 -24 -247 -89 -27 -30 -43 -64 -67 -140
-30 -97 -31 -100 -55 -91 -54 21 -242 50 -320 50 -78 0 -85 -2 -104 -26 -20
-25 -21 -40 -21 -215 l0 -188 -47 21 c-56 25 -139 28 -197 9 -53 -18 -125 -86
-149 -141 -25 -54 -26 -148 -4 -201 22 -52 81 -114 133 -140 59 -28 155 -29
218 0 l46 20 0 -188 c0 -175 1 -190 21 -215 l20 -26 210 0 c115 0 209 -4 209
-8 0 -5 -8 -24 -17 -43 -25 -47 -25 -171 0 -220 27 -54 75 -99 136 -127 99
-45 221 -17 294 69 66 77 83 168 47 261 -11 29 -20 56 -20 61 0 4 94 7 208 7
257 0 248 -4 244 128 -3 76 -14 152 -36 242 -6 24 5 32 208 148 233 134 292
176 350 252 36 47 41 50 85 50 37 0 62 9 124 46 88 51 117 88 117 149 0 34
-34 100 -233 445 -256 443 -261 450 -346 450 -37 0 -61 -9 -122 -46z m335
-476 c113 -196 206 -361 206 -366 0 -10 -67 -48 -74 -42 -2 3 -99 169 -214
370 l-211 364 37 22 c20 13 40 20 44 16 3 -4 99 -168 212 -364z m-200 -137
l175 -304 -22 -40 c-39 -69 -126 -138 -308 -241 -96 -55 -184 -106 -196 -114
-21 -13 -23 -11 -49 40 l-26 53 116 201 c127 220 135 247 90 283 -35 28 -70
26 -97 -3 -12 -14 -87 -138 -167 -277 -148 -258 -172 -289 -228 -289 -62 0
-119 64 -109 124 3 17 53 114 111 216 58 102 106 192 106 201 0 9 -9 28 -21
43 -16 20 -29 26 -60 26 -38 0 -42 -3 -76 -59 l-37 -58 -50 32 c-28 18 -79 46
-113 63 l-62 32 25 82 c41 134 54 145 179 147 162 3 387 52 545 121 47 20 88
34 92 31 4 -4 86 -143 182 -310z m-1368 -126 c158 -28 383 -119 466 -187 l27
-23 -36 -60 c-47 -80 -63 -127 -63 -189 1 -91 58 -183 145 -229 80 -43 235
-23 284 37 8 9 17 16 20 16 18 0 90 -254 91 -317 0 -23 -1 -23 -152 -23 -178
0 -215 -8 -257 -55 -53 -61 -58 -121 -16 -207 55 -113 -94 -212 -177 -118 -34
38 -37 84 -7 142 16 31 20 54 16 91 -5 60 -30 95 -87 125 -41 20 -58 22 -207
22 l-163 0 0 159 c0 147 -2 160 -22 191 -52 76 -122 97 -203 61 -69 -31 -120
-28 -156 8 -24 24 -29 38 -29 76 0 38 5 52 29 76 40 39 75 41 155 8 61 -26
122 -19 166 18 55 45 60 67 60 238 0 124 3 155 14 155 7 0 53 -7 102 -15z"/>
<path d="M2216 4649 l-26 -20 0 -215 c0 -201 1 -215 20 -234 27 -27 81 -26
106 1 17 19 19 41 22 216 3 211 -2 242 -44 262 -35 16 -48 14 -78 -10z"/>
<path d="M1175 4365 c-14 -13 -25 -34 -25 -46 0 -21 176 -335 208 -371 21 -25
77 -23 102 2 11 11 20 33 20 48 0 29 -163 326 -203 370 -27 30 -71 29 -102 -3z"/>
<path d="M2110 3794 c-329 -50 -597 -184 -803 -404 -233 -248 -339 -537 -324
-885 14 -320 99 -535 336 -855 111 -150 221 -311 221 -324 0 -6 -15 -23 -34
-38 -50 -40 -86 -119 -86 -187 0 -56 25 -128 55 -162 13 -13 12 -20 -10 -49
-108 -147 -14 -364 171 -394 41 -7 42 -9 67 -76 51 -137 146 -246 277 -314 91
-48 167 -66 278 -66 172 0 308 55 424 172 68 69 131 175 144 244 4 23 12 34
23 34 53 0 128 35 172 79 46 45 79 120 79 176 0 36 -29 121 -50 148 l-21 26
25 38 c51 78 57 172 17 251 -21 41 -57 83 -86 99 -17 10 -16 14 15 64 18 30
81 119 140 199 287 387 372 587 395 925 7 93 6 102 -15 128 l-21 27 -233 0
c-225 0 -234 -1 -266 -22 -67 -46 -88 -134 -50 -213 30 -62 26 -101 -14 -141
-44 -44 -99 -47 -145 -8 -42 35 -49 81 -22 144 37 86 21 168 -42 214 -26 19
-47 22 -210 26 l-182 5 -5 167 c-4 149 -7 170 -26 195 -51 67 -123 82 -215 44
-67 -28 -98 -24 -140 19 -64 64 -19 180 70 180 21 0 60 -10 86 -21 81 -36 151
-15 203 61 21 32 22 42 22 246 0 261 3 255 -117 253 -43 -1 -89 -3 -103 -5z
m70 -284 l0 -139 -42 19 c-89 41 -220 19 -292 -48 -67 -63 -97 -202 -62 -286
20 -47 82 -113 130 -139 53 -28 165 -30 215 -4 19 9 38 17 43 17 4 0 8 -84 8
-186 l0 -186 29 -29 29 -29 201 0 c111 0 201 -2 201 -4 0 -2 -9 -25 -21 -51
-39 -89 -15 -209 58 -281 48 -49 89 -66 165 -72 87 -6 143 14 202 74 74 74 97
191 56 283 -11 24 -20 45 -20 47 0 2 68 4 150 4 l150 0 0 -41 c0 -69 -39 -239
-77 -334 -49 -124 -120 -241 -267 -440 -69 -93 -147 -207 -173 -252 l-48 -82
-556 -1 -556 0 -45 78 c-25 42 -94 142 -153 222 -229 308 -304 451 -351 670
-28 131 -26 377 4 494 80 315 299 576 605 721 123 58 275 101 405 114 9 1 12
-33 12 -139z m728 -2335 c17 -14 33 -39 37 -55 8 -38 -18 -94 -51 -109 -18 -8
-203 -11 -645 -11 l-621 0 -29 29 c-32 33 -38 78 -15 120 28 51 17 50 678 51
l616 0 30 -25z m-23 -339 c34 -14 65 -59 65 -93 0 -36 -38 -82 -77 -93 -27 -8
-220 -10 -641 -8 l-604 3 -29 33 c-48 53 -30 136 35 162 11 5 290 9 619 9 495
1 603 -1 632 -13z m-205 -352 c0 -3 -14 -32 -31 -64 -43 -80 -111 -145 -198
-188 -66 -33 -83 -37 -170 -40 -79 -3 -107 0 -160 18 -87 29 -164 82 -211 144
-34 44 -70 113 -70 131 0 3 189 5 420 5 231 0 420 -3 420 -6z"/>
<path d="M421 3612 c-29 -22 -31 -76 -5 -102 24 -24 344 -210 361 -210 54 0
97 64 72 108 -18 32 -343 222 -380 222 -15 0 -37 -8 -48 -18z"/>
<path d="M147 2580 c-35 -28 -37 -80 -5 -110 20 -19 34 -20 234 -20 l213 0 20
26 c26 33 27 65 2 95 -19 24 -22 24 -228 27 -200 3 -210 2 -236 -18z"/>
<path d="M3932 2584 c-35 -24 -45 -59 -27 -93 8 -16 22 -31 30 -35 29 -11 415
-7 436 5 48 25 44 105 -7 128 -16 7 -96 11 -217 11 -160 0 -196 -3 -215 -16z"/>
<path d="M590 1644 c-91 -52 -171 -101 -179 -109 -24 -24 -18 -75 13 -102 15
-12 35 -23 45 -23 25 0 342 185 369 216 27 31 28 54 1 88 -35 45 -66 36 -249
-70z"/>
<path d="M3687 1722 c-22 -25 -22 -85 1 -104 23 -21 324 -194 350 -202 38 -13
91 29 92 71 0 37 -38 67 -203 162 -167 96 -208 109 -240 73z"/>
</g>
</svg>
