<?xml version="1.0" encoding="UTF-8"?>
<svg id="Capa_1" data-name="Capa 1" xmlns="http://www.w3.org/2000/svg" viewBox="0 0 1080 1080">
  <defs>
    <style>
      .cls-1 {
        fill: #592bbc;
        stroke-width: 0px;
      }
    </style>
  </defs>
  <path class="cls-1" d="m715.45,727.28c5.51,30.43,11.05,59.75,16.05,89.16,2.13,12.56,4.18,25.29,4.43,37.98.52,26.48-26.34,52.43-52.64,53.99-28.23,1.68-47.18-10.53-59.26-35.18-6.28-12.81-12.58-25.62-18.54-38.58-1.68-3.65-3.6-5.13-7.72-5.12-38.5.15-76.99.15-115.49,0-4.18-.02-5.84,1.63-7.55,5.23-7.61,16-14.85,32.27-23.7,47.58-13.73,23.74-35.54,29.05-61.03,25.09-21.47-3.34-43.19-25.16-44.79-46.67-1.09-14.64,1.37-29.76,3.75-44.42,4.76-29.45,10.55-58.73,16.09-89.07-2.77,0-5.25.01-7.73,0-54.06-.31-108.12-.89-162.18-.79-19.36.03-36.39-18.08-36.34-37.9.4-150.76.52-301.52.77-452.28.02-9.96.72-19.93.56-29.88-.31-19.6,18.64-35.05,36.87-35.04,228.82.09,457.63.1,686.45-.02,17.95,0,37,15.31,36.89,35.05-.1,18.19.9,36.38.88,54.57-.15,140.58-.42,281.15-.74,421.73-.01,6.25-.25,12.65-1.54,18.73-3.21,15.1-22.04,25.93-33.7,25.9-53.85-.17-107.7-.07-161.55-.07-2.56,0-5.12,0-8.21,0Zm183.16-114.16v-5.83c0-132.79,0-265.58,0-398.38,0-8.21-6.66-14.53-15.23-14.53-228.83,0-457.67,0-686.5,0-8.76,0-15.05,6.44-15.05,15.38,0,132.14,0,264.28,0,396.43v6.93h716.79Zm-223.84,273.13c23.94-.14,40.78-19.22,38.2-40.12-1.09-8.8-2.47-17.57-4.09-26.28-5.96-32.1-11.79-64.24-18.24-96.24-2.82-14-18.6-28.15-30.62-28.14-78.49.04-156.98.51-235.46.24-16.77-.06-32.68,15.49-35.03,28.53-7.32,40.65-15.09,81.22-21.97,121.94-3.07,18.16,8.72,34.39,26.51,38.98,15.99,4.13,32.01-2.94,40.2-18.61,9.11-17.43,17.65-35.15,26.24-52.85,2.05-4.22,4.82-6.06,9.52-6.05,43.23.08,86.48.68,129.69-.35,14.36-.35,21.31,5.19,26.37,17.61,5.78,14.18,12.98,27.81,19.94,41.48,6.55,12.86,17.31,19.46,28.75,19.86Zm223.82-249.49H181.82c0,17.52,0,34.6,0,51.67,0,9.78,6.09,15.93,15.79,15.93,55.59,0,111.17-.1,166.76.14,6.03.03,9.49-1.7,13.11-6.75,9.79-13.68,23.53-24.3,40.13-24.49,81.74-.95,163.51-.43,245.26-.41,1.93,0,4.09-.23,5.75.51,14.08,6.3,27.85,12.97,36.52,26.85,1.34,2.15,5.05,3.92,7.7,3.97,17.3.35,34.6.18,51.9.18,39.8,0,79.59,0,119.39,0,5.98,0,14.3-6.2,14.37-11.39.23-18.59.09-37.18.09-56.21Z"/>
  <path class="cls-1" d="m441.3,260.4c2.91,1.55,5.53,2.62,7.78,4.22,7.21,5.15,14.39,10.36,21.36,15.83,3.14,2.46,5.87,2.77,9.43,1,4.83-2.39,9.75-4.84,14.92-6.24,6.57-1.78,8.49-5.89,8.9-12.11.49-7.32,1.7-14.6,2.81-21.86,1-6.54,4.45-10.81,11.56-10.75,15.98.12,31.96.31,47.94.59,5.21.09,6.99,4.12,7.71,8.24,1.52,8.73,2.71,17.52,3.68,26.33.51,4.65,2.34,7.45,7.04,8.8,4.12,1.18,8.39,2.66,11.88,5.06,7.43,5.11,13.09,3.36,19.22-2.45,5.3-5.02,11.54-9.08,17.5-13.37,4.2-3.02,8.52-3,12.33.8,11.48,11.44,22.84,23,34.38,34.39,4.07,4.02,3.59,8.01.59,12.14-5.46,7.52-10.92,15.06-16.63,22.4-2.53,3.25-3.25,6.17-1.26,10.01,2.28,4.4,4.61,8.94,5.81,13.7,1.92,7.59,6.58,10,13.89,10.27,6.87.25,13.71,1.62,20.55,2.55,6.17.85,10.12,4.32,10.19,10.63.18,16.43.03,32.86-.18,49.29-.07,5.19-4.24,6.93-8.34,7.62-9.15,1.55-18.43,2.32-27.54,4-2.38.44-5.34,2.56-6.37,4.7-3.64,7.58-9.7,15.86-8.87,23.2.81,7.23,8.88,13.63,13.77,20.39.51.7,1.04,1.38,1.55,2.08,7.42,10.18,7.64,12.17-.87,21.11-9.83,10.33-20.34,20.01-30.38,30.15-4.34,4.39-8.6,4.24-13.19.82-7.45-5.56-14.96-11.04-22.22-16.84-3.14-2.51-5.78-2.72-9.38-.98-6.2,3.01-12.78,5.23-18.96,8.29-1.83.91-3.68,3.36-4.03,5.37-1.57,8.94-2.55,17.98-3.83,26.97-.88,6.19-4.48,10.02-10.75,10.08-16.4.15-32.81.02-49.21-.24-5.19-.08-6.77-4.41-7.45-8.5-1.51-9.17-2.31-18.46-3.92-27.6-.39-2.23-2.34-4.99-4.33-5.99-6.55-3.28-13.33-6.19-20.27-8.54-2.31-.78-5.93-.29-7.94,1.09-7.29,5.02-14.13,10.69-21.16,16.08-5.22,4.01-10.26,4.04-15.05-.79-10.96-11.05-21.89-22.12-32.94-33.08-4.12-4.09-4.18-8.19-.88-12.66,5.65-7.65,11.56-15.14,16.78-23.08,1.45-2.2,1.73-6,.99-8.62-1.46-5.16-4.68-9.84-5.97-15.02-1.8-7.27-6.4-9.11-13.04-9.51-7.09-.42-14.15-1.63-21.2-2.59-6.17-.84-10.11-4.33-10.18-10.64-.17-16.43-.02-32.86.19-49.29.07-5.2,4.26-6.9,8.36-7.58,9.15-1.52,18.43-2.29,27.55-3.96,2.38-.44,5.22-2.62,6.35-4.78,3.09-5.92,5.18-12.35,8.08-18.38,1.93-4.01,1.66-6.97-1.32-10.49-5.71-6.76-10.96-13.94-16.21-21.08-3.39-4.61-3.27-9.32.9-13.49,11.45-11.47,22.93-22.92,34.49-34.28,1.45-1.43,3.5-2.25,5.37-3.42Zm86.51-7.17c-1.53,9.87-3.1,19.03-4.32,28.24-.78,5.87-4.07,9.07-9.36,11.2-11.8,4.74-23.51,9.75-35.18,14.81-4.36,1.89-8.22,1.92-12.11-1.11-6.65-5.18-13.32-10.37-20.28-15.12-1.57-1.07-5.2-1.3-6.45-.24-5.37,4.57-10.21,9.77-15.23,14.72,6.44,8.98,12.73,17.24,18.38,25.92,1.51,2.32,2.31,6.37,1.36,8.83-5.03,13.09-10.76,25.91-16.14,38.88-1.84,4.44-5.02,6.79-9.69,7.52-9.37,1.47-18.71,3.06-28.67,4.7v24.58c9.16,1.53,17.62,3.38,26.18,4.25,7.59.77,11.26,4.9,13.74,11.63,3.95,10.74,8.05,21.47,13,31.76,2.83,5.88,2.77,10.23-1.33,15.3-5.91,7.33-11.23,15.13-16.6,22.45,6.08,6.18,11.66,11.86,17.38,17.68,8.27-6.04,16.54-11.94,24.63-18.07,3.51-2.66,6.65-2.91,10.73-1.07,11.01,4.97,22.04,10.03,33.43,14,8.88,3.09,12.65,8.79,13.41,17.68.64,7.5,1.89,14.94,2.87,22.39h24.92c1.54-9.28,3.4-17.76,4.25-26.34.77-7.67,5.08-11.17,11.74-13.64,10.51-3.9,20.95-8.06,31.1-12.81,6.27-2.93,11.47-2.64,16.76,1.65,5.71,4.63,11.64,9,17.34,13.64,2.6,2.11,4.69,2.49,7.26-.09,4.85-4.86,9.92-9.5,14.93-14.26-6.62-9.05-12.51-17.32-18.65-25.4-2.72-3.57-2.64-6.76-.87-10.77,4.71-10.66,9.55-21.32,13.28-32.34,3.05-9.02,8.53-13.47,17.8-14.24,7.69-.64,15.33-1.85,22.81-2.79v-25.2c-9.27-1.55-17.74-3.39-26.31-4.27-7.33-.75-10.96-4.69-13.39-11.16-4.03-10.71-8.19-21.4-13-31.77-2.92-6.3-2.62-11.48,1.67-16.78,4.63-5.72,9.23-11.47,13.46-17.49,1.06-1.5,1.61-4.93.69-5.99-4.89-5.63-10.32-10.79-15.43-15.99-7.81,6-14.98,11.23-21.83,16.85-5.63,4.62-10.99,4.37-17.34,1.33-9.51-4.57-19.23-8.88-29.2-12.27-8.79-2.99-12.97-8.48-13.75-17.47-.67-7.71-1.87-15.37-2.87-23.34h-25.13Z"/>
  <path class="cls-1" d="m540.3,761.1c-3.66,0-7.33.22-10.97-.04-6.22-.44-9.47-3.83-9.83-9.79-.34-5.7,3.42-11.41,8.9-11.64,8.12-.34,16.34-.06,24.42.84,5.52.61,8.84,5.91,8.13,11.35-.73,5.58-3.69,9.12-9.68,9.27-3.66.09-7.32.02-10.97.02Z"/>
  <path class="cls-1" d="m451.33,788.78c-7.07.09-13.39-5.71-13.26-12.19.12-6.08,6.63-12.3,12.89-12.32,6.4-.02,12.68,6,12.8,12.28.12,6.46-5.65,12.14-12.43,12.23Z"/>
  <path class="cls-1" d="m629.22,788.78c-6.79-.05-12.59-5.66-12.55-12.12.04-6.28,6.25-12.35,12.68-12.4,6.51-.05,13.3,6.67,12.99,12.86-.32,6.46-6.24,11.72-13.12,11.66Z"/>
  <path class="cls-1" d="m451.05,712.7c6.86.03,12.66,5.49,12.71,11.97.05,6.48-5.71,12.06-12.52,12.12-7.03.06-13.36-5.83-13.17-12.27.19-6.43,6.14-11.85,12.99-11.82Z"/>
  <path class="cls-1" d="m629.63,736.79c-6.93.06-12.7-5.14-12.95-11.68-.26-6.66,5.78-12.46,12.91-12.4,6.77.05,12.75,5.7,12.76,12.04,0,6.29-6.01,11.99-12.72,12.05Z"/>
  <path class="cls-1" d="m424.96,762.78c-6.75-.03-12.76-5.61-12.84-11.94-.09-6.58,6.16-12.3,13.29-12.15,6.79.14,12.55,5.86,12.38,12.29-.17,6.54-5.92,11.83-12.83,11.8Z"/>
  <path class="cls-1" d="m476.96,762.78c-6.79,0-12.77-5.49-12.92-11.85-.16-6.56,6.1-12.35,13.21-12.24,6.81.11,12.58,5.76,12.47,12.21-.11,6.53-5.86,11.89-12.75,11.88Z"/>
  <path class="cls-1" d="m603.66,762.78c-6.93.06-12.69-5.15-12.94-11.7-.25-6.66,5.79-12.45,12.93-12.39,6.76.05,12.75,5.72,12.75,12.05,0,6.29-6.02,11.98-12.74,12.03Z"/>
  <path class="cls-1" d="m655.1,762.79c-6.74-.08-12.56-5.75-12.48-12.17.08-6.48,5.9-11.91,12.76-11.92,6.83,0,12.78,5.46,12.93,11.87.15,6.47-6.15,12.3-13.21,12.22Z"/>
  <path class="cls-1" d="m540.33,479.8c-41.8-.01-76.37-34.35-76.23-75.71.15-41.61,34.64-76.49,75.71-76.56,41.52-.07,76.66,34.91,76.7,76.36.04,41.31-34.69,75.92-76.18,75.91Zm-.14-23.37c28.3,2.71,53.49-25.48,53.28-53.13-.2-26.08-24.3-53.64-53.65-52.82-29.68.84-52.92,24.24-52.86,54.24.05,28.93,25.89,54.34,53.23,51.71Z"/>
</svg>