<?xml version="1.0" standalone="no"?>
<!DOCTYPE svg PUBLIC "-//W3C//DTD SVG 20010904//EN"
 "http://www.w3.org/TR/2001/REC-SVG-20010904/DTD/svg10.dtd">
<svg version="1.0" xmlns="http://www.w3.org/2000/svg"
 width="512.000000pt" height="512.000000pt" viewBox="0 0 512.000000 512.000000"
 preserveAspectRatio="xMidYMid meet">
<metadata>
Created by potrace 1.16, written by Peter Selinger 2001-2019
</metadata>
<g transform="translate(0.000000,512.000000) scale(0.100000,-0.100000)"
fill="#000000" stroke="none">
<path d="M2880 5104 c-72 -19 -153 -68 -199 -121 -21 -23 -95 -147 -166 -275
-71 -128 -161 -291 -199 -361 l-71 -128 -210 -3 c-244 -3 -365 -22 -560 -87
-646 -214 -1120 -762 -1235 -1428 -146 -841 305 -1671 1089 -2004 245 -103
434 -141 716 -141 279 -1 458 33 708 136 l99 40 321 -319 c347 -344 376 -366
508 -398 174 -41 347 9 482 138 189 182 235 411 127 628 -27 54 -79 111 -341
375 l-310 310 46 89 c25 49 53 112 64 139 l19 51 413 5 414 5 68 32 c194 92
292 323 222 523 -9 25 -360 628 -781 1341 -578 980 -776 1307 -812 1343 -106
108 -264 150 -412 110z m226 -182 c21 -11 53 -35 70 -54 18 -18 195 -310 394
-648 200 -338 539 -912 753 -1275 215 -363 396 -680 404 -705 36 -113 -29
-250 -142 -301 -36 -17 -73 -19 -397 -19 -197 0 -358 3 -358 8 0 4 10 54 22
112 19 91 22 136 22 345 0 223 -1 249 -26 366 -152 706 -672 1247 -1365 1420
-29 7 -53 16 -53 21 0 11 326 604 357 650 28 41 84 82 134 97 49 15 139 6 185
-17z m-1126 -877 c0 -3 -264 -467 -587 -1032 -322 -566 -595 -1048 -606 -1072
-24 -56 -34 -184 -18 -248 36 -140 132 -250 269 -305 l57 -23 1135 -5 1135 -5
-140 -140 c-202 -202 -409 -332 -662 -414 -183 -60 -295 -76 -523 -75 -230 0
-323 15 -519 80 -704 234 -1171 912 -1138 1650 35 769 588 1415 1341 1564 137
27 256 39 256 25z m375 -21 c44 -9 81 -17 82 -18 2 -1 -7 -22 -20 -47 l-22
-44 0 -590 c0 -664 -5 -622 78 -712 58 -63 124 -93 208 -93 94 0 154 24 215
84 89 90 88 80 91 621 2 259 3 485 3 503 l0 33 43 -29 c138 -96 308 -276 413
-437 318 -490 355 -1128 94 -1650 l-55 -110 -1170 -3 c-1285 -2 -1220 -5
-1297 58 -74 61 -109 187 -77 279 9 26 1168 2068 1225 2158 16 25 39 25 189
-3z m376 -115 l89 -42 0 -539 c0 -585 1 -572 -56 -617 -59 -46 -146 -31 -185
33 -18 29 -19 60 -19 579 0 558 1 567 38 610 21 24 32 22 133 -24z m1410
-3207 c11 -23 26 -71 32 -106 9 -54 8 -74 -7 -130 -30 -111 -123 -218 -233
-269 -37 -17 -67 -22 -133 -22 -145 0 -156 8 -497 348 -161 160 -293 294 -293
297 0 3 15 14 33 25 120 70 333 262 439 397 l62 79 288 -288 c190 -189 296
-303 309 -331z"/>
<path d="M2629 2380 c-111 -19 -218 -109 -259 -216 -30 -81 -25 -196 12 -269
49 -93 125 -155 227 -181 271 -69 505 214 388 469 -46 100 -138 177 -232 192
-76 12 -90 13 -136 5z m156 -194 c86 -56 96 -187 21 -262 -64 -64 -161 -67
-226 -7 -49 43 -64 81 -58 144 13 126 156 195 263 125z"/>
</g>
</svg>
