<?xml version="1.0" standalone="no"?>
<!DOCTYPE svg PUBLIC "-//W3C//DTD SVG 20010904//EN"
 "http://www.w3.org/TR/2001/REC-SVG-20010904/DTD/svg10.dtd">
<svg version="1.0" xmlns="http://www.w3.org/2000/svg"
 width="512.000000pt" height="512.000000pt" viewBox="0 0 512.000000 512.000000"
 preserveAspectRatio="xMidYMid meet">
<metadata>
Created by potrace 1.16, written by Peter Selinger 2001-2019
</metadata>
<g transform="translate(0.000000,512.000000) scale(0.100000,-0.100000)"
fill="#000000" stroke="none">
<path d="M345 4806 c-60 -28 -87 -56 -114 -116 -20 -45 -21 -57 -21 -1570 l0
-1525 24 -50 c28 -60 56 -87 116 -114 44 -20 63 -21 588 -21 l544 0 -6 -27
c-3 -16 -33 -176 -67 -358 -67 -363 -71 -426 -30 -518 30 -70 110 -149 184
-183 54 -25 74 -29 152 -29 77 0 98 4 145 26 103 49 134 86 216 255 41 84 78
164 84 178 l10 26 388 0 389 0 79 -168 c89 -189 133 -244 232 -290 49 -23 70
-27 147 -27 78 0 98 4 151 28 74 34 143 102 180 176 47 95 45 141 -25 526 -34
187 -65 350 -68 362 l-5 23 543 0 544 0 50 24 c60 28 87 56 114 116 20 45 21
56 21 1570 0 1514 -1 1525 -21 1570 -27 60 -54 88 -114 116 l-50 24 -2165 0
-2165 0 -50 -24z m4396 -145 l29 -29 0 -1261 0 -1261 -2210 0 -2210 0 0 1261
0 1261 29 29 29 29 2152 0 2152 0 29 -29z m29 -2872 l0 -181 -29 -29 -29 -29
-560 0 -560 0 -22 34 c-31 50 -85 95 -160 130 l-65 31 -785 0 -785 0 -65 -31
c-75 -35 -129 -80 -160 -130 l-22 -34 -560 0 -560 0 -29 29 -29 29 0 181 0
181 2210 0 2210 0 0 -181z m-1404 -206 c52 -28 97 -79 118 -134 19 -53 146
-754 146 -807 -1 -52 -30 -111 -78 -154 -85 -77 -207 -77 -293 1 -31 28 -57
75 -124 221 -47 102 -93 191 -102 198 -21 15 -913 18 -942 3 -10 -6 -58 -96
-106 -201 -71 -154 -96 -198 -127 -224 -111 -96 -278 -63 -343 67 -14 28 -25
68 -25 89 0 54 127 754 146 807 27 73 86 128 164 152 14 4 363 7 775 6 l750
-2 41 -22z"/>
<path d="M2372 4448 c-16 -18 -23 -46 -33 -129 l-11 -106 -82 -34 c-44 -19
-84 -35 -87 -37 -3 -1 -39 24 -80 56 -84 66 -110 82 -135 82 -23 0 -251 -226
-258 -256 -8 -30 0 -45 75 -139 l60 -76 -37 -88 -38 -89 -75 -7 c-106 -9 -153
-21 -168 -41 -9 -13 -13 -65 -13 -184 0 -209 -4 -203 151 -221 l106 -11 34
-82 c19 -44 35 -84 37 -87 2 -4 -24 -40 -56 -81 -66 -83 -82 -109 -82 -134 0
-23 226 -251 256 -258 30 -8 45 0 139 75 l76 60 88 -37 89 -38 7 -75 c9 -106
21 -153 41 -168 13 -9 65 -13 184 -13 209 0 203 -4 221 152 l13 108 35 11 c20
7 57 22 83 35 26 13 49 24 52 24 3 0 38 -26 79 -59 82 -65 108 -81 133 -81 23
0 251 226 259 257 7 29 -3 46 -82 146 l-54 67 37 89 38 89 75 6 c104 9 153 22
168 42 9 13 13 65 13 184 0 209 4 203 -151 221 l-106 12 -34 81 c-19 45 -35
84 -37 87 -2 4 24 40 56 81 66 83 82 109 82 134 0 23 -226 251 -257 259 -29 7
-46 -3 -146 -83 l-69 -54 -66 30 c-37 17 -77 33 -88 36 -19 6 -23 17 -29 84
-9 107 -21 154 -41 169 -13 9 -65 13 -184 13 -160 0 -167 -1 -188 -22z m272
-160 c3 -24 8 -68 12 -98 9 -80 22 -94 106 -120 40 -12 101 -37 136 -57 43
-23 71 -33 86 -29 13 3 58 33 100 67 l77 62 55 -54 c30 -29 54 -56 54 -59 0
-3 -25 -36 -56 -75 -83 -103 -83 -102 -41 -182 19 -37 45 -101 57 -141 14 -47
30 -78 44 -87 16 -10 162 -35 209 -35 4 0 7 -36 7 -79 l0 -79 -37 -6 c-21 -3
-65 -8 -98 -12 -85 -9 -99 -21 -125 -106 -12 -40 -37 -103 -56 -139 -19 -36
-34 -71 -34 -77 0 -6 30 -50 66 -98 l66 -86 -53 -54 c-29 -30 -56 -54 -59 -54
-3 0 -36 25 -75 56 -103 83 -102 83 -182 41 -37 -19 -101 -45 -141 -57 -47
-14 -78 -30 -87 -44 -10 -16 -35 -162 -35 -208 0 -5 -35 -8 -79 -8 l-79 0 -5
43 c-4 23 -9 68 -13 100 -3 32 -14 66 -23 76 -9 11 -47 29 -86 41 -38 13 -100
38 -136 56 -36 19 -71 34 -77 34 -6 0 -50 -30 -98 -66 l-87 -66 -55 55 -54 55
66 86 c36 48 66 92 66 99 0 6 -15 40 -34 76 -19 36 -44 99 -56 139 -14 47 -30
78 -44 87 -16 10 -162 35 -208 35 -5 0 -8 36 -8 80 0 44 3 80 8 80 46 0 192
25 208 35 14 9 30 40 44 87 12 40 37 101 56 135 19 34 34 68 34 77 0 8 -30 54
-66 102 l-66 86 53 54 c29 30 56 54 59 54 3 0 39 -27 80 -60 41 -33 85 -63 97
-66 14 -4 43 6 85 29 35 20 96 45 136 57 47 14 78 30 87 44 7 11 19 65 25 119
l12 97 78 0 78 0 6 -42z"/>
<path d="M2441 3854 c-247 -66 -399 -324 -336 -569 48 -184 202 -321 390 -348
327 -47 603 259 520 578 -22 83 -61 151 -125 216 -117 118 -291 166 -449 123z
m251 -151 c65 -30 133 -95 165 -162 24 -48 28 -68 28 -141 0 -72 -4 -93 -28
-141 -32 -67 -98 -131 -165 -161 -36 -17 -67 -22 -132 -22 -73 -1 -93 3 -141
27 -264 128 -244 505 31 607 70 26 174 23 242 -7z"/>
<path d="M1951 1474 c-12 -15 -21 -37 -21 -49 0 -12 9 -34 21 -49 16 -20 29
-26 59 -26 30 0 43 6 59 26 12 15 21 37 21 49 0 12 -9 34 -21 49 -16 20 -29
26 -59 26 -30 0 -43 -6 -59 -26z"/>
<path d="M3051 1474 c-12 -15 -21 -37 -21 -49 0 -12 9 -34 21 -49 16 -20 29
-26 59 -26 30 0 43 6 59 26 12 15 21 37 21 49 0 12 -9 34 -21 49 -16 20 -29
26 -59 26 -30 0 -43 -6 -59 -26z"/>
<path d="M1791 1314 c-12 -15 -21 -37 -21 -49 0 -12 9 -34 21 -49 16 -20 29
-26 59 -26 30 0 43 6 59 26 12 15 21 37 21 49 0 12 -9 34 -21 49 -16 20 -29
26 -59 26 -30 0 -43 -6 -59 -26z"/>
<path d="M2111 1314 c-12 -15 -21 -37 -21 -49 0 -12 9 -34 21 -49 16 -20 29
-26 59 -26 30 0 43 6 59 26 12 15 21 37 21 49 0 12 -9 34 -21 49 -16 20 -29
26 -59 26 -30 0 -43 -6 -59 -26z"/>
<path d="M2483 1334 c-47 -11 -67 -70 -37 -112 14 -20 23 -22 114 -22 91 0
100 2 114 22 21 30 20 61 -2 88 -16 19 -30 23 -93 26 -41 1 -84 0 -96 -2z"/>
<path d="M2891 1314 c-12 -15 -21 -37 -21 -49 0 -12 9 -34 21 -49 16 -20 29
-26 59 -26 30 0 43 6 59 26 12 15 21 37 21 49 0 12 -9 34 -21 49 -16 20 -29
26 -59 26 -30 0 -43 -6 -59 -26z"/>
<path d="M3211 1314 c-12 -15 -21 -37 -21 -49 0 -12 9 -34 21 -49 16 -20 29
-26 59 -26 30 0 43 6 59 26 12 15 21 37 21 49 0 12 -9 34 -21 49 -16 20 -29
26 -59 26 -30 0 -43 -6 -59 -26z"/>
<path d="M1951 1154 c-12 -15 -21 -37 -21 -49 0 -12 9 -34 21 -49 16 -20 29
-26 59 -26 30 0 43 6 59 26 12 15 21 37 21 49 0 12 -9 34 -21 49 -29 37 -89
37 -118 0z"/>
<path d="M3051 1154 c-12 -15 -21 -37 -21 -49 0 -12 9 -34 21 -49 16 -20 29
-26 59 -26 30 0 43 6 59 26 12 15 21 37 21 49 0 12 -9 34 -21 49 -29 37 -89
37 -118 0z"/>
</g>
</svg>
