<?xml version="1.0" standalone="no"?>
<!DOCTYPE svg PUBLIC "-//W3C//DTD SVG 20010904//EN"
 "http://www.w3.org/TR/2001/REC-SVG-20010904/DTD/svg10.dtd">
<svg version="1.0" xmlns="http://www.w3.org/2000/svg"
 width="599.000000pt" height="623.000000pt" viewBox="0 0 599.000000 623.000000"
 preserveAspectRatio="xMidYMid meet">
<metadata>
Created by potrace 1.16, written by Peter Selinger 2001-2019
</metadata>
<g transform="translate(0.000000,623.000000) scale(0.100000,-0.100000)"
fill="#000000" stroke="none">
<path d="M2840 5761 c-14 -5 -54 -14 -90 -21 -198 -37 -396 -181 -516 -376
-33 -55 -64 -108 -68 -118 -14 -39 -36 -245 -42 -396 -13 -325 24 -500 145
-682 142 -214 289 -348 490 -448 106 -53 151 -64 244 -56 114 9 277 85 389
179 77 65 190 177 231 229 62 78 145 235 165 311 43 160 44 174 40 452 -5 292
-10 321 -75 463 -94 207 -296 377 -525 443 -80 23 -341 36 -388 20z m285 -488
c115 -61 157 -186 100 -299 -30 -60 -32 -93 -5 -127 30 -38 50 -91 50 -134 0
-44 -36 -126 -72 -165 -51 -54 -80 -61 -268 -69 -178 -7 -212 -3 -224 26 -11
30 -7 755 5 777 10 19 18 20 192 16 161 -3 187 -6 222 -25z"/>
<path d="M2866 5134 c-20 -19 -22 -122 -3 -148 11 -16 25 -18 94 -15 70 4 85
8 107 28 43 40 35 111 -15 136 -39 21 -162 20 -183 -1z"/>
<path d="M2900 4802 c-34 -7 -35 -8 -38 -61 -6 -100 -4 -101 94 -101 77 0 87
2 109 25 34 33 35 98 3 119 -27 17 -119 27 -168 18z"/>
<path d="M4255 5234 c-48 -17 -85 -56 -85 -89 0 -13 -4 -27 -10 -30 -16 -10
-12 -41 12 -91 16 -35 57 -77 167 -174 166 -145 241 -222 341 -351 86 -111
202 -305 242 -402 16 -39 33 -76 37 -81 20 -25 92 -261 120 -396 17 -80 36
-205 42 -279 12 -140 9 -367 -5 -389 -5 -8 -32 13 -89 72 -77 77 -93 88 -217
148 -74 36 -155 73 -180 84 -54 22 -287 134 -350 168 -25 13 -88 45 -140 69
-115 55 -282 164 -368 241 -34 31 -74 59 -89 62 -32 8 -68 -10 -97 -49 -20
-27 -21 -43 -27 -385 -6 -363 -27 -628 -64 -794 -8 -37 -15 -83 -15 -103 0
-19 -4 -43 -9 -53 -5 -9 -23 -72 -41 -139 -44 -175 -162 -465 -233 -576 -17
-26 -34 -47 -38 -47 -12 0 -18 106 -29 530 -6 223 -13 439 -16 480 l-6 75 56
73 c31 40 73 87 92 104 33 29 64 76 64 97 0 5 -30 46 -67 92 -38 45 -94 114
-125 152 -31 39 -72 79 -90 88 -56 30 -115 21 -146 -23 -23 -32 -176 -213
-189 -223 -24 -19 -63 -79 -63 -96 0 -10 20 -39 44 -66 84 -91 138 -158 148
-183 6 -16 8 -94 4 -210 -3 -102 -8 -282 -11 -400 -11 -459 -18 -528 -49 -476
-6 10 -21 34 -33 53 -13 18 -23 40 -23 47 0 8 -15 45 -34 82 -18 38 -44 98
-56 134 -13 36 -27 70 -32 76 -23 31 -118 400 -148 573 -42 248 -51 362 -56
716 -5 323 -7 353 -26 392 -35 76 -110 75 -208 -4 -109 -87 -207 -153 -326
-217 -67 -36 -129 -66 -137 -66 -8 0 -17 -7 -21 -15 -3 -8 -14 -15 -24 -15
-11 0 -24 -6 -30 -13 -10 -12 -115 -63 -272 -133 -261 -115 -337 -161 -439
-267 -31 -31 -60 -57 -65 -57 -13 0 0 453 17 555 16 98 86 361 113 422 9 21
32 76 51 123 19 47 40 92 48 100 7 8 24 38 38 65 42 84 65 127 80 144 8 9 27
38 42 64 15 27 36 58 46 70 163 197 255 290 404 409 39 30 78 64 88 76 27 30
34 121 12 177 -23 61 -58 80 -151 79 l-71 -1 -92 -77 c-124 -105 -234 -206
-245 -225 -5 -9 -37 -45 -70 -81 -117 -125 -292 -373 -363 -514 -62 -124 -137
-316 -173 -441 -16 -57 -34 -113 -39 -124 -6 -11 -11 -35 -11 -54 0 -19 -9
-78 -20 -130 -74 -362 -39 -821 95 -1235 35 -110 143 -358 191 -439 13 -23 24
-50 24 -61 0 -25 -41 -62 -70 -62 -36 0 -107 -38 -130 -69 -87 -123 13 -295
162 -278 28 4 66 15 85 27 19 11 40 20 46 20 7 0 39 -20 72 -45 33 -25 76 -48
95 -51 53 -10 80 -27 140 -90 247 -257 695 -513 1080 -618 269 -73 594 -103
840 -77 137 14 416 71 520 105 247 82 539 224 710 346 140 100 271 209 300
250 26 36 98 80 131 80 14 0 58 23 98 51 l74 51 38 -21 c21 -12 60 -24 86 -27
40 -5 57 -1 102 23 74 38 94 75 88 166 -7 104 -48 149 -154 169 -46 8 -64 16
-69 30 -6 19 -1 30 73 168 23 41 47 95 54 120 7 25 24 60 36 79 13 19 23 46
23 60 1 14 9 44 20 66 11 22 19 50 20 63 0 12 7 33 15 45 24 37 63 202 86 367
30 207 33 521 6 690 -26 164 -55 309 -72 355 -7 22 -26 81 -41 130 -47 157
-199 475 -276 575 -10 14 -35 50 -55 80 -167 255 -573 624 -681 619 -9 0 -35
-7 -57 -15z m-2430 -2542 c36 -15 70 -82 60 -120 -3 -14 -21 -40 -40 -59 l-33
-33 -252 0 -252 0 -28 29 c-35 35 -45 69 -33 118 9 37 43 66 94 76 49 10 454
1 484 -11z m2796 8 c72 -20 107 -95 74 -159 -28 -55 -58 -61 -305 -61 -237 0
-272 6 -304 51 -39 56 -3 148 67 168 44 13 423 13 468 1z m-144 -448 c32 -18
63 -61 63 -89 0 -40 -30 -93 -64 -111 -25 -13 -69 -17 -242 -20 -262 -5 -338
5 -376 48 -56 61 -26 157 54 178 49 12 540 8 565 -6z m-2381 -26 c28 -28 34
-42 34 -76 0 -34 -6 -48 -34 -76 l-34 -34 -276 0 c-232 0 -282 3 -307 16 -31
15 -59 66 -59 104 0 32 28 80 53 90 12 5 150 9 306 9 l283 1 34 -34z m213
-417 c71 -15 115 -65 108 -122 -7 -48 -47 -93 -96 -107 -20 -6 -169 -10 -336
-10 -273 0 -304 2 -342 19 -46 21 -73 62 -73 111 0 62 33 97 105 113 44 10
586 7 634 -4z m2006 2 c62 -13 97 -131 55 -184 -43 -54 -75 -58 -425 -55 -316
3 -320 3 -352 26 -74 53 -65 158 17 200 43 22 51 22 360 21 173 -1 328 -4 345
-8z m-445 -456 c38 -20 50 -43 50 -98 0 -60 -27 -92 -92 -112 -40 -11 -104
-15 -274 -15 -122 0 -236 3 -253 6 -18 4 -45 20 -62 36 -24 24 -29 38 -29 77
0 55 20 87 64 107 48 20 556 20 596 -1z m-1170 -10 c58 -30 63 -134 8 -180
l-30 -25 -271 0 c-252 0 -274 2 -304 20 -66 40 -80 124 -28 176 l24 24 286 0
c233 0 291 -3 315 -15z"/>
<path d="M1630 4528 c-129 -66 -132 -243 -5 -315 74 -42 153 -26 216 44 79 87
51 221 -56 273 -54 26 -100 25 -155 -2z"/>
<path d="M4174 4530 c-31 -12 -83 -79 -94 -121 -12 -44 9 -123 41 -158 78 -83
229 -60 278 42 27 55 27 99 0 154 -30 63 -80 93 -149 92 -30 0 -64 -4 -76 -9z"/>
<path d="M1682 666 c-12 -24 -22 -46 -22 -49 0 -3 -11 -23 -25 -43 -14 -20
-25 -43 -25 -50 0 -7 24 -29 54 -48 82 -55 147 -46 162 22 3 15 12 42 20 60
27 63 14 101 -46 132 -22 11 -52 20 -68 20 -24 0 -32 -7 -50 -44z"/>
<path d="M2174 522 c-20 -12 -87 -195 -77 -210 12 -19 103 -53 133 -50 40 5
33 39 -12 61 -49 24 -48 37 1 37 26 0 41 5 45 16 9 23 9 24 -29 40 -25 10 -33
18 -28 30 4 11 13 14 27 9 45 -13 94 -17 100 -7 11 18 -28 49 -75 61 -26 6
-53 13 -60 16 -8 3 -19 1 -25 -3z"/>
<path d="M3612 489 c-113 -73 -60 -239 75 -239 96 0 162 105 118 190 -36 70
-124 92 -193 49z"/>
<path d="M2621 427 c-17 -21 -42 -145 -39 -191 3 -36 6 -41 28 -41 17 0 29 8
38 27 9 20 22 28 54 33 50 9 98 52 98 89 0 36 -39 76 -85 86 -56 13 -81 12
-94 -3z"/>
<path d="M3065 422 c-30 -7 -30 -7 -33 -87 -4 -112 4 -162 29 -170 24 -8 49
10 49 36 0 32 21 32 55 -1 24 -24 38 -30 54 -25 24 7 27 32 6 55 -12 14 -12
21 2 61 20 54 12 93 -22 115 -29 19 -95 26 -140 16z"/>
</g>
</svg>
